# xmcd CD database file
#
# Track frame offsets:
#	150
#	27037
#	50432
#	75011
#	102876
#	127320
#	153755
#	176599
#	199004
#	220966
#	243505
#	273572
#
# Disc length: 3985 seconds
#
# Revision: 0
# Processed by: cddbd v1.5.1PL0 Copyright (c) Steve Scherf et al.
# Submitted via: CDex 1.40Release
#
DISCID=9b0f8f0c
DTITLE=UA - 11
DYEAR=1996
DGENRE=Soul
TTITLE0=リズム
TTITLE1=大きな木に甘えて
TTITLE2=落ちた星
TTITLE3=バラ色
TTITLE4=ゼリー
TTITLE5=ヒマワリ
TTITLE6=雲がちぎれる時
TTITLE7=情熱
TTITLE8=紅い花
TTITLE9=水色
TTITLE10=ランデブー
TTITLE11=情熱
EXTD=YEAR: 1996 ID3G: 42
EXTT0=
EXTT1=
EXTT2=
EXTT3=
EXTT4=
EXTT5=
EXTT6=
EXTT7=
EXTT8=
EXTT9=
EXTT10=
EXTT11=
PLAYORDER=
